<svg xmlns="http://www.w3.org/2000/svg" width="6666.667" height="6666.667" viewBox="0 0 6666.667 6666.667"><path d="M39491.4 32856.6c20.6-353.5 129.2-685.4 260.1-1009.5 145.7-360.5 219.4-729.6 185.2-1118.8-7.7-88.9-5.8-178.8-4.9-268.1 5.8-614.9 144.1-816.9 715.7-1049.9 105.3-42.9 212.4-82.4 314-132.7 343-169.7 405.4-380.9 199.9-710.2-115.9-185.7-252.4-358.6-377.2-538.9-259.8-375.3-278.9-769.6-85.2-1177.4 146.4-308.1 298.1-613.7 443.9-922 272.5-576.4 228.2-1126.7-112.6-1668.5-425.1-675.8-897.8-1313.1-1444-1895.6-88.4-10.7-134.4-83.7-196.8-133.1-380.4-300.9-770.4-584.8-1256.2-695.5-6.3 219.1.4 439.6-21.2 657.2-69.9 703.5-140.5 1402.8 143.4 2084.4 218.3 524.2 288.9 1073.8 275.8 1643.9-10.1 438.7-99.2 833.1-370.7 1183.1-130.2 167.8-234.5 354-268 567.9-39.3 250.5-126.3 485.2-208.8 723.1-183.4 529.4-366.6 1059.5-527.3 1596.1-439.5 1468.1-1335.3 2482.6-2844.1 2893.6-319.4 87-367.8 42.3-387-276-81.1 294.5-31.4 594.7-30.3 891.4 1.3 377.5-144.6 678.9-424.6 912.5-339 282.7-732.4 468.6-1158 585.5-177.7 49.5-355.5 99-533.3 148.5 177.9 124-3.3 223-47.3 288.2-516.2 764.6-1145.9 1424.9-1916.5 1934.9-190.7 126.1-290.7 265.2-318.2 476.8 1220.8 433.7 2461.1 432.4 3709.3 151.5 450.2-101.3 892.2-238.3 1339.1-354.9 102.1-26.7 190.7-52.1 161.4-186.6-62.8-136.5-61.9-285.7-72.5-429.5-57.9-787.8 457.4-1517.4 1216.2-1724.6 458.6-125.2 929.4-144.8 1401.8-139.7 622.8-92.8 1006.8-431.4 1061.2-1074.9 29.6-350.9 202.5-551 535.4-622.9 339.6-73.5 567.4-259.4 642.3-609.3" style="fill:#9d2735;fill-opacity:1;fill-rule:nonzero;stroke:none" transform="matrix(.13333 0 0 -.13333 0 6666.667)"/><path d="M15679.9 14546.3c-313.3-108.1-605.6-73.8-873.9 127.6-338.5 254-561.9 585.2-650.7 999.3-41.2 192.6-142.5 281.9-339.6 320-563.3 108.7-1081.6 343.6-1585.3 612.5-138.6 73.9-224.9 173.4-234.8 340.8-19.1 323.5-196.8 540.2-483.2 678.3-87.6 42.3-170.7 94.3-254.1 144.8-485.4 293.8-685.3 719.4-588.5 1280.9 52.5 305.1 81 611.4 75.8 922.1-4.8 281.8-76.1 530.1-293.5 721.1-198.6 174.4-308.6 389.8-336.2 654.3-22.3 213.5-108.1 407-229.09 584.6-224.17 328.9-330.35 688.1-259.9 1085.8 83.04 468.8-110.32 781.8-522.83 990.7-343.51 174-648.38 401.1-899.34 698.5-112.98 133.9-121.65 216.3 69.85 268.1 814.67 220.5 621.55 501.3 347.41 991.8-55.39 99-108.39 206.2-187.73 283.9-198.95 194.7-158.38 374.3-11.68 575.4 184.71 253.1 398.33 477.4 664.74 637.6 336.7 202.4 481.45 489.2 463.69 873.5-30.77 665.9-118.3 1328-126.64 1995.9-1.75 140.2-69.59 283-122.9 418.3-94.3 239.3-45.53 448 119.42 632.1 305.39 340.7 647.2 641.9 1040.4 876.9 292.1 174.6 592 139.6 881.6-22 191.2-106.8 376.3-222.9 582.4-303.9 396.3-155.9 732.4-65.4 1026.1 224.2 138.9 137 268.7 283.1 406.9 420.9 91.6 91.4 184.2 184.9 318.1 215.4 18.1-348.7 166.3-658.5 303-968.7 165.5-375.5 65.5-684-214.3-946.3-545.4-511.2-1124.4-990-1772.5-1357.5-532.6-302.1-744-732.4-649.5-1288.9 85.5-504.2-55.2-919.9-284.6-1344.2-282-521.6-443-1084.4-404.9-1681.9 22.9-359.2 24.8-738.9 302.9-1025.6 623.5-642.7 957.1-1460.2 1349.2-2240.6 386.3-768.8 725.4-1560.7 1140.7-2316 281.5-512.1 557.6-1029 801.2-1559.8 328.2-715.1 603.2-1454.5 970.5-2152.1 82-155.7 134.5-312.6 113.7-488.8-42-355.9 57.2-655.2 348.1-879" style="fill:#9d2835;fill-opacity:1;fill-rule:nonzero;stroke:none" transform="matrix(.13333 0 0 -.13333 0 6666.667)"/><path d="M14149 32870.1c47.7 7.8 95.1 20.3 143.1 22.7 418.3 20.4 411.4 19.4 379.3 453.3-37.2 502.6-72 1007.8-16.8 1509.9 63.5 577.6 300.4 1109.5 506.1 1644.6 125.7 327.2 442.9 494.6 766.3 543.9 552.6 84.2 920.9 336.3 1160.5 857.5 178.3 387.7 531.5 642.4 934 819.2 505.2 222 1000.5 466.7 1498.7 704.5 434.6 207.4 889.5 311 1370.9 261.4 753.4-77.6 1343.3 162.8 1703.8 858.2 48.3 93.2 89 82 168.5 35.1 549.8-324.3 749-315.3 1224 58.9 66 52 103.2 45.6 167.3 8.6 815.6-470.7 1691.9-726.2 2635.9-758.8 282.8-9.8 564-65.9 846-100.8 45.4-479.7-53.6-901.1-458.2-1215.5-194.7-151.3-399-276.7-632.9-354.4-940.9-312.6-1909.5-499.8-2891.1-617.6-424.5-51-849.3-64.1-1282.6-19.1-479.3 49.7-974.9 64.9-1427.4-182.5-395.4-216.1-679-546-937.5-902.4-495-682.7-990.6-1364.7-1382-2115.6-73.9-141.7-161.4-297.3-346.1-316-410.4-41.7-662-291-823-638-180.2-388.5-456.2-730.1-562.2-1154.1-18-1.4-36.1-2.7-54.1-4-145.7-12.7-296.6 43-437.4-33.7-503-57.3-908.9-281.5-1207.4-695.4-75.5-104.7-162.3-201.4-243.9-301.7-55.5 365.7-103.4 732.8-168.4 1096.9-88.8 497.3-94.4 496.3-609.6 530.5-8 .5-15.8 2.9-23.8 4.4" style="fill:#9d2734;fill-opacity:1;fill-rule:nonzero;stroke:none" transform="matrix(.13333 0 0 -.13333 0 6666.667)"/><path d="M14149 32870.1c8-1.5 15.8-3.9 23.8-4.4 515.2-34.2 520.8-33.2 609.6-530.5 65-364.1 112.9-731.2 168.4-1096.9-223.7-299.5-449.8-597.3-670.7-898.9-343.3-468.4-546.7-988.3-618.5-1569.1-62.9-508.8-122.5-1018-152.9-1528.7-56.2-941.4-333.3-1837.6-538-2748-115-511.7-15.9-965 245.9-1399.7 164.9-273.7 374.7-510.7 604.9-730.6 581.9-431.7 1130.5-894.5 1537.4-1507.9 183.4-276.4 404-528.1 607.8-791 285.4-367.8 706.6-494.7 1121.9-631.9 92.8-347.7 180.2-697.1 330.5-1026.3 270.2-730.5 655.6-1400.1 1082.1-2048-36.7-15.1-81.1-21.6-109.1-46.6-472.7-421.7-999.6-769.7-1520.2-1126.8-186-127.7-403.9-208.5-560-379.9-230.1-38.8-390.3-248.3-632-258.6-290.9 223.8-390.1 523.1-348.1 879 20.8 176.2-31.7 333.1-113.7 488.8-367.3 697.6-642.3 1437-970.5 2152.1-243.6 530.8-519.7 1047.7-801.2 1559.8-415.3 755.3-754.4 1547.2-1140.7 2316-392.1 780.4-725.7 1597.9-1349.2 2240.6-278.1 286.7-280 666.4-302.9 1025.6-38.1 597.5 122.9 1160.3 404.9 1681.9 229.4 424.3 370.1 840 284.6 1344.2-94.5 556.5 116.9 986.8 649.5 1288.9 648.1 367.5 1227.1 846.3 1772.5 1357.5 279.8 262.3 379.8 570.8 214.3 946.3-136.7 310.2-284.9 620-303 968.7 152.4 57.8 310 81.7 472.6 74.4" style="fill:#6b1822;fill-opacity:1;fill-rule:nonzero;stroke:none" transform="matrix(.13333 0 0 -.13333 0 6666.667)"/><path d="M31390.8 11514.6c-105.3-14.5-166.2-83.4-225.5-165.7-142.4-197.8-289.5-392.5-441.9-582.8-125.2-156.3-301.9-258.4-493.5-201-556.1 166.3-1097.3.1-1644.2-37.5-73-5-146.7-25.5-218.3-19.3-848.4 74.2-1619.7-184.1-2370.6-539-183.4-86.6-378.5-148.3-562.8-233.3-344.2-158.8-686.9-153.5-1043.8-39.4-392.8 125.5-772.7 304-1195 321.1-172.4 70.4-353.8 39.4-530.4 38.8-716.1-2.2-1219.2 334.6-1549.2 954.1-195.2 366.6-328.8 758.9-472.8 1146.8l-237.6 922.2c-42.1 477.4-214 937.6-189.3 1423.9 909.1-694 1897.9-1247.6 2957.2-1676.5 235.5-95.3 410.1-257.4 536.3-475.5 308-531.8 753.5-714.8 1338.9-524.1 609.3 198.5 1213.2 404.4 1861.7 444.9 592.6 36.9 1117.5 235.9 1616.7 586.5 675.8 474.6 1440.4 512 2201.1 179 385.8-168.9 755-375.8 1130.3-568.2 16.2-8.2 18.8-42.9 27.7-65.2-166.7-248.5-334.6-496.2-499.1-746.1-29-44-114-99.8 4.1-143.7" style="fill:#9d2835;fill-opacity:1;fill-rule:nonzero;stroke:none" transform="matrix(.13333 0 0 -.13333 0 6666.667)"/><path d="M16893.5 32273.1c106.1 424 382.1 765.6 562.3 1154.1 161 347 412.6 596.3 823 638 184.7 18.7 272.2 174.3 346.1 316 391.4 750.9 887 1432.9 1382 2115.6 258.5 356.4 542.1 686.3 937.5 902.4 452.5 247.4 948.1 232.2 1427.4 182.5 433.3-45 858.1-31.9 1282.6 19.1 981.6 117.8 1950.2 305 2891.1 617.6 233.9 77.7 438.2 203.1 632.9 354.4 404.6 314.4 503.6 735.8 458.2 1215.5 1096.2-190.6 1486.8-1057.5 1860.6-1940.8 27.5-211.6 127.5-350.7 318.2-476.8 770.6-510 1400.3-1170.3 1916.5-1934.9 44-65.2 225.2-164.2 47.3-288.2-1208.6 227.1-2308 666.2-3152.3 1608.8-135.4 151.1-283.9 291-431.5 430.6-183.3 173.2-374.3 337.9-596.4 461.3-413.7 230-817 239.7-1210.4-51.5-275.5-204-580.8-357-890.4-501.5-531.3-272.7-1001.1-671.1-1596.3-811.5-376.8-88.9-706.8-223-898-589.7-35.2-67.3-114.6-112.4-175.9-165.3-375.6-324.1-672.2-702.2-800.8-1191.1-18.2-69.3-51.1-115.8-106.3-153.2-306.6-30.2-615-65.3-921.5-31.1-370.2 41.3-688.3-63.2-972.7-289.8-285.2-227.1-563.2-466.5-889.3-632.7-592.2-301.9-1026.5-752.8-1319.4-1345.3-283 189.1-595.3 308.4-924.5 387.5" style="fill:#6b1923;fill-opacity:1;fill-rule:nonzero;stroke:none" transform="matrix(.13333 0 0 -.13333 0 6666.667)"/><path d="M20215.9 14503.5c-24.7-486.3 147.2-946.5 189.3-1423.9-336.4-68.5-676.7-97.2-1019.8-95.6-31.6 7.5-63.9 12.7-94.7 22.7-1081.7 354-944.9 339.5-2017.5-259.7-333-186-371-185.4-544.3 161-214.9 429.6-212.3 913.5-317.7 1370.7-40.1 173.8-66.6 350.7-99.3 526.2 156.1 171.4 374 252.2 560 379.9 520.6 357.1 1047.5 705.1 1520.2 1126.8 28 25 72.4 31.5 109.2 46.6 462-629.9 972.3-1199.7 1764.4-1419.3 90.8-157.4-74.6-285.5-49.8-435.4" style="fill:#471c1d;fill-opacity:1;fill-rule:nonzero;stroke:none" transform="matrix(.13333 0 0 -.13333 0 6666.667)"/><path d="M31390.8 11514.6c-118.1 43.9-33.1 99.7-4.1 143.7 164.5 249.9 332.4 497.6 499.1 746.1 147.3 232.1 300.1 461 440.7 697.1 236.5 397.4 370.1 816.1 346.5 1293.5-19.7 396.5-83.3 787-105.3 1182 347 113.6 696.8 219.3 1040.4 342.2 1159 414.9 1698 1181.2 1692.3 2413.9-5 1099.1-381.2 2095.6-870.1 3058.7 8.5 420.1-27.1 838-65.4 1255.7-30.3 279.3-73.8 555.5-139.2 829.9-135.2 567.5-412.2 1063.3-741.1 1535.7 100.8 363.7 178.1 731 166.7 1111.6 329.6 350.5 575.2 759.9 819.8 1169.9 483.5-34.6 804-306.4 965-738.3 264.9-710.4 312.1-1448.8 219.9-2201.8-34.2-279.2-44.3-566.3 19.9-847.7 141.8-621.3 148.5-1234.7-125.2-1826.7-75.3-162.7-11.3-238.7 140.1-286.8 520.4-165.2 1050.8-157.1 1582.3-85.8 295 39.5 588.4 96.8 860.3 228.9 485.7 110.7 875.7 394.6 1256.1 695.5 62.4 49.4 108.4 122.4 196.8 133.1 456.7-753.1 874.2-1522.5 1006.4-2411.2 50.6-340 32.9-681.2 18.4-1022.3-14.9-349.1-40.1-698-44.9-1047.2-7.4-534.9-234.5-930.5-698-1201.1-470.2-274.6-970.4-409.9-1514.6-366.8-358.7 28.5-692.7-44.1-1011.1-211.6-145.2-76.3-221.7-184.3-224.4-345.6-6.6-400.3-85.1-791.3-156-1182.9-66.1-364.8-58.5-724 19.1-1088.4 80.9-380.3 68.6-761-111.2-1119.2-174.5-347.3-431.5-444.4-786.8-291.8-254.4 109.3-501.4 235.6-707.4 424.8-113.4 104.2-154.9 73-180.9-64.6-57.4-304.8-68.1-613.5-91-921.3-34.5-465.5-127.1-541.5-580.6-451.7-236 46.7-469.5 34.9-703.9 10.2-423-44.6-830.2 13.2-1208.3 207-386.7 198.2-784.1 308.8-1220.3 233.3" style="fill:#461c1d;fill-opacity:1;fill-rule:nonzero;stroke:none" transform="matrix(.13333 0 0 -.13333 0 6666.667)"/><path d="M21921 34184.5c55.1 37.4 88 83.9 106.2 153.2 128.6 488.9 425.2 867 800.8 1191.1 61.3 52.9 140.7 98 175.9 165.3 191.2 366.7 521.2 500.8 898 589.7 595.2 140.4 1065 538.8 1596.3 811.5 37-43.2 87.4-43 135-33.5 430.8 86.1 839.8-7.6 1235.2-165.2 401.2-160 765.2-393.6 1131.9-619.2 1100-677 2270-1159.9 3571.5-1253.9 244.5-17.7 491.5-109.5 740.7-24.4 425.6-116.9 819-302.8 1158-585.5 280-233.6 425.9-535 424.6-912.5-1.1-296.7-50.8-596.9 30.4-891.4-1.7-406.5 101.2-767.6 436.9-1032.7 129.2-102 171.9-254.7 197.6-406.5 158.9-942 274.4-1888.2 246.6-2846.6-29.1-22.6-46.3-88-90.7-58.8-418.2 275.4-907.4 434.2-1267 808-652.3 678.1-1409.6 1246-2051.3 1936.1-218.5 258.8-426.7 527.1-657.9 774-281.8 300.8-345 690.1-468 1056.3-128.9 383.9-290.6 748.6-663.6 956.2-349.1 194.2-671.2 421.5-982.2 671.9-204.9 165-416.1 362-706.1 346.6-562.2-29.8-1043.8-259.1-1456-638.8-27 16.9-57.3 30.2-80.6 51.3-289.3 263.2-599.9 491.2-982.1 602.9-37.6 11-73.8 36.6-113.2 5.7 34-20.5 65.6-47.5 102.3-60.5 380.5-135.3 702.6-358.2 980.9-647.9-75.5-133.2-171.6-259-222.3-401-135-378.9-423.6-468-784.5-480.1-355.3-12-707.6-53.5-1043.9-195.1-701.9-295.4-1396.6-607.3-2121.5-848.1-450.2-149.5-813.1-433.8-1040.6-867.6-89-169.8-227.4-291.1-398-380.6-150.1-78.7-314.9-131.1-446.4-243.7-106.4-69.3-205.9-141.6-337.9-172.3-344.5-80.2-556-305.9-723.7-620.9-388.5-729.7-761.5-1466.4-1101.1-2219.5-214-474.8-548.7-878.8-763.4-1353.3-69.3-152.9-72-334.4-197.1-462.3-35.2 339.3-70.4 678.6-105.6 1018 35.4 220.6-32.9 434.6-42.8 652.8-43.7 970.6 95.4 1922.3 308.3 2862.9 109.9 485.9 208.9 981.7 473.4 1418.7 197.6 180 387.8 368.9 594.2 538.2 642.3 526.7 1386.9 868.2 2153.6 1167.1 167.4 65.3 338.3 124.4 521.4 93.5 461.2-77.9 922.9-73.9 1380.6 10.7 879.6 162.7 1718.7 425.3 2398.2 1048.7 33.1 30.4 105.3 45.3 78.1 101.7-10.6 22.2-88.4 22.1-133.3 16-321.2-44.1-640.6-95.6-957-170.4-646.1-152.6-1276.2-373.7-1938.8-455.8" style="fill:#c96b68;fill-opacity:1;fill-rule:nonzero;stroke:none" transform="matrix(.13333 0 0 -.13333 0 6666.667)"/><path d="M34806.6 28323.9c27.8 958.4-87.7 1904.6-246.6 2846.6-25.7 151.8-68.4 304.5-197.6 406.5-335.7 265.1-438.6 626.2-436.9 1032.7 19.1 318.3 67.5 363 386.9 276 1508.8-411 2404.6-1425.5 2844.1-2893.6 160.7-536.6 343.9-1066.7 527.3-1596.1 82.5-237.9 169.5-472.6 208.8-723.1 33.5-213.9 137.8-400.1 268-567.9 271.5-350 360.6-744.4 370.7-1183.1 13.1-570.1-57.5-1119.7-275.8-1643.9-283.9-681.6-213.3-1380.9-143.4-2084.4 21.6-217.6 14.9-438.1 21.2-657.2-271.8-132.1-565.2-189.4-860.2-228.9-531.5-71.3-1061.9-79.4-1582.3 85.8-151.4 48.1-215.4 124.1-140.1 286.8 273.7 592 267 1205.4 125.2 1826.7-64.2 281.4-54.1 568.5-19.9 847.7 92.2 753 45 1491.4-219.9 2201.8-161 431.9-481.5 703.7-965 738.3 160.6 327.2 313.1 657.1 335.5 1029.3" style="fill:#6c1822;fill-opacity:1;fill-rule:nonzero;stroke:none" transform="matrix(.13333 0 0 -.13333 0 6666.667)"/><path d="M32312.5 34999.1c-249.2-85.1-496.2 6.7-740.7 24.4-1301.5 94-2471.5 576.9-3571.5 1253.9-366.7 225.6-730.7 459.2-1131.9 619.2-395.4 157.6-804.4 251.3-1235.2 165.2-47.6-9.5-98-9.7-135 33.5 309.6 144.5 614.9 297.5 890.4 501.5 393.4 291.2 796.7 281.5 1210.4 51.5 222.1-123.4 413.1-288.1 596.4-461.3 147.6-139.6 296.1-279.5 431.5-430.6 844.3-942.6 1943.7-1381.7 3152.3-1608.8 177.8-49.5 355.6-99 533.3-148.5" style="fill:#efbdb0;fill-opacity:1;fill-rule:nonzero;stroke:none" transform="matrix(.13333 0 0 -.13333 0 6666.667)"/><path d="M15966.7 20064.4c-203.8 262.9-424.4 514.6-607.8 791-406.9 613.4-955.5 1076.2-1537.5 1508 72.3 42.2 73.6 120.4 95.5 188.3 181.1 562.1 230.6 1146.5 233.5 1728.4 5.7 1168.8-25 2337.8-41.5 3506.6-.8 56.6-8 113.3-15.4 169.5-90.1 681.8 147.8 1227.4 760.4 1469.9 219.1 86.7 378.1 246.9 499.2 447 433.7 717.1 722.3 1507.9 1136.3 2235 62.8 110.1-6.3 120.5-87.3 127.3 140.8 76.7 291.7 21 437.5 33.7-21.6-159.9-35.5-321.2-66.2-479.4-260.1-1343.1-595.1-2673.6-744.7-4035.6-144.3-1313.1-352.7-2615.3-605.2-3910.1-110.4-566.5-95.6-1107 86.4-1651.8 149.1-446.4 293.7-895.3 412.5-1350.4 65.4-250.3 167.3-511 44.3-777.4" style="fill:#c86b67;fill-opacity:1;fill-rule:nonzero;stroke:none" transform="matrix(.13333 0 0 -.13333 0 6666.667)"/><path d="M15966.7 20064.4c123 266.4 21.1 527.1-44.3 777.4-118.8 455.1-263.4 904-412.5 1350.4-182 544.8-196.8 1085.3-86.4 1651.8 252.5 1294.8 460.9 2597 605.2 3910.1 149.6 1362 484.6 2692.5 744.7 4035.6 30.7 158.2 44.6 319.5 66.2 479.4 17.9 1.3 36 2.6 54 4 329.1-79.1 641.4-198.4 924.4-387.5 2-16.9 4-33.9 6-50.8-264.5-437-363.5-932.8-473.4-1418.7-212.9-940.6-352-1892.3-308.3-2862.9 9.9-218.2 78.2-432.2 42.9-652.8-42.9-6.5-74.1-24.7-86.5-70.9-148.7-553.7-263.4-1115.9-292.2-1687.7-26.7-533-15.3-1068.7-.9-1602.7 6.6-245.7 14.6-496.1 91.3-735.3 54-700.6 277.7-1340.6 667.9-1926.4 354.9-532.9 765.8-1023.2 1144.4-1538-33.8.7-67.6 1.4-101.5 2.1-76.5 67.5-169.7 39.8-256.6 42.9-387.6 13.9-777.6-33.2-1162.5 48.1-415.3 137.2-836.5 264.1-1121.9 631.9" style="fill:#a23a40;fill-opacity:1;fill-rule:nonzero;stroke:none" transform="matrix(.13333 0 0 -.13333 0 6666.667)"/><path d="M16402.1 32235.4c81-6.8 150.1-17.2 87.3-127.3-414-727.1-702.6-1517.9-1136.3-2235-121.1-200.1-280.1-360.3-499.2-447-612.6-242.5-850.5-788.1-760.4-1469.9 7.4-56.2 14.6-112.9 15.4-169.5 16.5-1168.8 47.2-2337.8 41.5-3506.6-2.9-581.9-52.4-1166.3-233.5-1728.4-21.9-67.9-23.2-146.1-95.5-188.3-230.1 219.8-439.9 456.8-604.8 730.5-261.8 434.7-360.9 888-245.9 1399.7 204.7 910.4 481.8 1806.6 538 2748 30.4 510.7 90 1019.9 152.9 1528.7 71.8 580.8 275.2 1100.7 618.5 1569.1 220.9 301.6 447 599.4 670.7 898.9 81.6 100.3 168.4 197 243.9 301.7 298.5 413.9 704.4 638.1 1207.4 695.4" style="fill:#f1beb1;fill-opacity:1;fill-rule:nonzero;stroke:none" transform="matrix(.13333 0 0 -.13333 0 6666.667)"/><path d="M17088.6 19432.5c384.9-81.3 774.9-34.2 1162.5-48.1 86.9-3.1 180.1 24.6 256.6-43-89.4-1.4-178.8-1.5-268.1-4.6-56.4-1.9-143.5 12.3-162.7-16.7-45.9-69 42.1-111.3 78.3-156.9 441.8-556.3 1036.7-929.9 1620.1-1306.7 806.8-521.1 1679.5-921.4 2574.6-1268 1015.3-393.1 2049.7-717.2 3141.8-820.2 403-38 813.4-62.2 1121.1-382.7 210.4-149.6 420.8-299.2 631.1-448.9 248-265.2 246.9-264-34.2-541.1-75.3-74.2-154.7-140.1-250-186.1-176.1 106-371.2 165.4-570.4 194.5-1209.7 176.6-2417.6 371.5-3644.5 388.7-79.8 1.1-175.7-2.5-236.4 37.8-511.4 340-1074.4 634.8-1334.8 1236.8-134.5 311.1-351.5 492.5-662.8 593-200.3 64.7-396.6 140.4-582 245.4-479.4 271.4-860.6 659.9-1263.4 1025.5-348.7 316.5-750.3 528.4-1246.3 475-150.3 329.2-237.7 678.6-330.5 1026.3" style="fill:#9b2734;fill-opacity:1;fill-rule:nonzero;stroke:none" transform="matrix(.13333 0 0 -.13333 0 6666.667)"/><path d="M17419.1 18406.2c496 53.4 897.6-158.5 1246.3-475 402.8-365.6 784-754.1 1263.4-1025.5 185.4-105 381.7-180.7 582-245.4 311.3-100.5 528.3-281.9 662.8-593 260.4-602 823.4-896.8 1334.8-1236.8 60.7-40.3 156.6-36.7 236.4-37.8 1226.9-17.2 2434.8-212.1 3644.5-388.7 199.2-29.1 394.3-88.5 570.4-194.5-703.3-531.7-1459.3-800.3-2341.6-490.5-229 80.5-466.3 146.3-705.2 187.8-777.2 134.9-1538.7 319.4-2279.5 597.2-447.3 167.8-911.2 291.5-1367.7 434.9-792.1 219.6-1302.4 789.4-1764.4 1419.3-426.6 647.9-812 1317.5-1082.2 2048" style="fill:#c96b67;fill-opacity:1;fill-rule:nonzero;stroke:none" transform="matrix(.13333 0 0 -.13333 0 6666.667)"/><path d="M20265.7 14938.9c456.5-143.4 920.4-267.1 1367.7-434.9 740.8-277.8 1502.3-462.3 2279.5-597.2 238.9-41.5 476.2-107.3 705.2-187.8 882.3-309.8 1638.3-41.2 2341.6 490.5 95.3 46 174.7 111.9 250 186.1 281.1 277.1 282.2 275.9 34.3 541.2.7 18.7 1.4 37.3 2.2 56 241.7-189.9 486.8-377.2 798.8-433 348.4-62.3 697.5-127.1 1054.7-105.3 74.1-72.5 168.1-46.3 254.3-46.7 379.6-1.7 758.1 4.3 1137.6 40.4 268.5 25.5 506.6 98.3 647.6 321.9 335.2 531.4 861.9 698.8 1428.5 806.9 22-395 85.6-785.5 105.3-1182 23.6-477.4-110-896.1-346.5-1293.5-140.6-236.1-293.4-465-440.7-697.1-8.9 22.3-11.5 57-27.7 65.2-375.3 192.4-744.5 399.3-1130.3 568.2-760.7 333-1525.3 295.6-2201.1-179-499.2-350.6-1024.1-549.6-1616.7-586.5-648.5-40.5-1252.4-246.4-1861.7-444.9-585.4-190.7-1030.9-7.7-1338.9 524.1-126.2 218.1-300.8 380.2-536.3 475.5-1059.3 428.9-2048.1 982.5-2957.2 1676.5-24.8 149.9 140.6 278 49.8 435.4" style="fill:#6c1922;fill-opacity:1;fill-rule:nonzero;stroke:none" transform="matrix(.13333 0 0 -.13333 0 6666.667)"/><path d="M17824 31834.8c-2 16.9-4 33.9-6 50.8 292.9 592.5 727.2 1043.4 1319.4 1345.3 326.1 166.2 604.1 405.6 889.3 632.7 284.4 226.6 602.5 331.1 972.7 289.8 306.5-34.2 614.9.9 921.5 31.1 662.7 82.1 1292.8 303.2 1938.9 455.8 316.4 74.8 635.8 126.3 957 170.4 44.9 6.1 122.7 6.2 133.3-16 27.2-56.4-45-71.3-78.1-101.7-679.5-623.4-1518.6-886-2398.2-1048.7-457.7-84.6-919.4-88.6-1380.6-10.7-183.1 30.9-354-28.2-521.4-93.5-766.7-298.9-1511.3-640.4-2153.6-1167.1-206.4-169.3-396.6-358.2-594.2-538.2" style="fill:#f1bfb2;fill-opacity:1;fill-rule:nonzero;stroke:none" transform="matrix(.13333 0 0 -.13333 0 6666.667)"/><path d="M32567.7 15577c-566.6-108.1-1093.3-275.5-1428.5-806.9-141-223.6-379.1-296.4-647.6-321.9-379.5-36.1-758-42.1-1137.6-40.4-86.2.4-180.2-25.8-254.3 46.8 24.3.1 49.9-4.5 72.8 1.3 129 32.8 358.8-82.9 366.3 93.4 5.3 125.1-245.7 69.5-378.2 106.6-238.4 66.8-509.6-29.5-722.9 147.6-211.6 175.6-426.7 341.8-710.7 385.9-111.9 17.4-153 64.6-79.8 183 149.6 241.9 123.3 414.8-99.5 585.4-104 79.6-101.1 128-11 200.2 283.7 103.7 558.2 242.9 871.3 62.3 87.5-50.4 231.3-38.5 333.5 15.1 478.4 251.1 938 176.4 1399.9-49.5 205.8-100.7 417.7-94.6 635.8.9 195.4 85.5 391.6 168.4 543.9 317.4 405.9 396.9 850.8 722.5 1412 867.8 153.4 39.7 266.4 147.6 341.4 294.3 225.8 441.6 474.1 872.6 680.2 1323.1 349.5 763.7 601.8 1559 675.6 2402.4 488.9-963.1 865.1-1959.6 870.1-3058.7 5.7-1232.7-533.3-1999-1692.3-2413.9-343.6-122.9-693.4-228.6-1040.4-342.2" style="fill:#8f202d;fill-opacity:1;fill-rule:nonzero;stroke:none" transform="matrix(.13333 0 0 -.13333 0 6666.667)"/><path d="M34430.3 21391.8c-73.8-843.4-326.1-1638.7-675.6-2402.4-206.1-450.5-454.4-881.5-680.2-1323.1-75-146.7-188-254.6-341.4-294.3-561.2-145.3-1006.1-470.9-1412-867.8-152.3-149-348.5-231.9-543.9-317.4-218.1-95.5-430-101.6-635.8-.9-461.9 225.9-921.5 300.6-1399.9 49.5-102.2-53.6-246-65.5-333.5-15.1-313.1 180.6-587.6 41.4-871.3-62.2-106.1 23.2-255.9-49.5-310.3 73.6-44.2 100 77 182.6 132 267.7 171.5 265 344.5 529.1 523.8 788.8 366 530.6 667.4 1104.1 1071.4 1609.3 48.3 1.8 96.7 3.5 145 5.2 146-1.3 296.5-26.7 437.1-.1 922.8 174.6 1864.1 201.2 2788.3 352.8 732.8 120.3 827.6 249.5 778.1 931.8-29.3 404.9 130.3 730.2 412.4 998.1 329.2 312.8 594.9 660.1 728.2 1101.8 36.5 120.7 8.1 265.8 122.2 360.4 38.3-417.7 73.9-835.6 65.4-1255.7" style="fill:#bb5857;fill-opacity:1;fill-rule:nonzero;stroke:none" transform="matrix(.13333 0 0 -.13333 0 6666.667)"/><path d="M34806.6 28323.9c-22.4-372.2-174.9-702.1-335.5-1029.3-244.6-410-490.2-819.4-819.8-1169.9-16.7 130.5-33.3 261-50 391.5 81.4 254.6-87.2 446-172.4 656.5-19.8 48.7-14.9 163.9-132.6 121.8-338.6 533.2-773.7 976.8-1268 1365.5 27.8 115.5-73.8 144.5-136.8 190.6-208.3 152.6-422.1 297.7-633.7 445.7-16 162-76.4 318.5-59.4 484.6 153.9 13.7 113.1-141.1 176.9-205.7 20.5-20.7 33.3-49.2 49.6-74.1 6.5 28.4 11.8 57.1 19.6 85.1 107.1 382.2 24.9 750.9-91 1113.3-38.2 119.3-41.6 216.3 44.1 309.7 641.7-690.1 1399-1258 2051.3-1936.1 359.6-373.8 848.8-532.6 1267-808 44.4-29.2 61.6 36.2 90.7 58.8" style="fill:#9a2432;fill-opacity:1;fill-rule:nonzero;stroke:none" transform="matrix(.13333 0 0 -.13333 0 6666.667)"/><path d="M34364.9 22647.5c-114.1-94.6-85.7-239.7-122.2-360.4-133.3-441.7-399-789-728.2-1101.8-282.1-267.9-441.7-593.2-412.4-998.1 49.5-682.3-45.3-811.5-778.1-931.8-924.2-151.6-1865.5-178.2-2788.3-352.8-140.6-26.6-291.1-1.2-437.1 0 .3 14-.4 27.9-2 41.8 86.1 2.1 172.2 4.2 258.2 6.4 480.1 30.3 950.2 118.3 1401.5 283.4 387.2 141.7 781.2 278.6 1081.5 584.5 52.3 37.5 111.3 68.4 155.9 113.6 366.6 371.9 599.6 806.7 587.2 1341.8-5.9 256.8 65.9 439.7 272 624.7 533.7 479.1 771 1115.8 558.3 1800.7-148.3 477.5-86.6 883.6 73.4 1313.6 328.9-472.4 605.9-968.2 741.1-1535.7 65.4-274.4 108.9-550.6 139.2-829.9" style="fill:#8f212e;fill-opacity:1;fill-rule:nonzero;stroke:none" transform="matrix(.13333 0 0 -.13333 0 6666.667)"/><path d="M33484.6 25013.1c-160-430-221.7-836.1-73.4-1313.6 212.7-684.9-24.6-1321.6-558.3-1800.7-206.1-185-277.9-367.9-272-624.7 12.4-535.1-220.6-969.9-587.2-1341.8-44.6-45.2-103.6-76.1-155.9-113.6-142.3 79.1-285 157.9-393.8 283.4-260.5 300.5-168.2 599.4 218.7 689.5 149.6 34.9 302.3 54.7 458.4 58.2 247.8 5.6 331.2 102.4 283.4 338.2-27.4 135.5-15.1 256.6 31.3 380.6 190.3 508.4 217.4 1025.7 101.2 1555.7-73.9 337.3-98.7 684.6 45.9 1006.4 234.6 522.2 388.3 1066.7 529.4 1618.9 81.1 317 226.2 614.6 464.6 853.7 8.1-29 16.3-58 24.4-87.1 16.7-130.5 33.3-261 50-391.5 11.4-380.6-65.9-747.9-166.7-1111.6" style="fill:#f3c2b5;fill-opacity:1;fill-rule:nonzero;stroke:none" transform="matrix(.13333 0 0 -.13333 0 6666.667)"/><path d="M31397.6 31009.2c-85.7-93.4-82.3-190.4-44.1-309.7 115.9-362.4 198.1-731.1 91-1113.3-7.8-28-13.1-56.7-19.6-85.1-16.3 24.9-29.1 53.4-49.6 74.1-63.8 64.6-23 219.4-176.9 205.7-68.6 104.7-69 230.3-106.2 344.5-104.7 322-179.4 669.6-490.6 865.6-500.7 315.3-1018.3 601.3-1596.5 754.7-478.9 127.1-906.7 343.5-1268 689.6-181.1 173.4-377.3 331.2-570 492.1-40.9 34.1-76.8 107.4-136.8 82.3-61.8-25.8-22.3-100.5-30.8-153-120.7-746.4-413.9-1152.4-1116.4-1290.3-180.4-35.4-371.2-27-540.2-116.2-76.8-.1-153.7-.3-230.5-.5-495.5 89-984.8 23.9-1473.3-59.5-119.5 10.1-237.8 9-351-38.6-354.3 180.4-714.3 106.9-1014.6-80.4-538.5-335.8-1119.4-585.9-1667.7-899.2-157.9 60.6-230 195.3-291.9 338.7 131.5 112.6 296.3 165 446.4 243.7 170.6 89.5 309 210.8 398 380.6 227.5 433.8 590.4 718.1 1040.6 867.6 724.9 240.8 1419.6 552.7 2121.5 848.1 336.3 141.6 688.6 183.1 1043.9 195.1 360.9 12.1 649.5 101.2 784.5 480.1 50.7 142 146.8 267.8 222.2 401.1 52.8-25.9 94.4-30.2 92.8 48.4 412.2 379.7 893.8 609 1456 638.8 290 15.4 501.2-181.6 706.1-346.6 311-250.4 633.1-477.7 982.2-671.9 373-207.6 534.7-572.3 663.6-956.2 123-366.2 186.2-755.5 468-1056.3 231.2-246.9 439.4-515.2 657.9-774" style="fill:#942330;fill-opacity:1;fill-rule:nonzero;stroke:none" transform="matrix(.13333 0 0 -.13333 0 6666.667)"/><path d="M20313.9 30710.7c61.9-143.4 134-278.1 291.9-338.7-363.7-218.7-596.8-569.6-840.8-894.3-195.4-260.1-414.9-541.2-390.2-909.7-62.8-126.2-169.2-217.9-272.2-304.1-502.2-420.1-701.1-966.4-693.9-1604.3-10.1-12.5-27.1-24.1-29.1-37.9-195.9-1342.2 18.9-2588.4 891.9-3666.9 138.6-171.3 270.4-374.7 507.2-444.9 154.9-208.8 336.1-396.7 539-554.2 235.7-183 429.8-427.5 728.1-524 162-192.5 349-358.2 544.1-516.3 562.6-456.1 1168.5-838.8 1846.3-1101.6 78.4-41.1 152.9-94 235.8-121.4 877.3-290.4 1767.1-522.5 2697.4-557.5-110.9-70.7-238.4-41.8-356.9-51.3-793-63.3-1588.2-116.9-2370.7 83.8-494.4 126.7-989.5 175.9-1492.7 78.2-353.6-68.6-675-25.5-947.2 232.2-70.6 66.9-148.2 126.2-220.9 190.8-973.3 865-1505.5 2021.2-2080.2 3149.6-202.1 396.8-290 840.4-539 1221-332 507.3-588.2 1049.4-515.3 1685.6 4.9 42.7 11.9 89.6-40 95.8-65.2 7.8-101.2-40.2-123.2-97.1l-299.1-480c-93.6 204.2-194.8 406-193.5 638.9 125.1 127.9 127.8 309.4 197.1 462.3 214.7 474.5 549.4 878.5 763.4 1353.3 339.6 753.1 712.6 1489.8 1101.1 2219.5 167.7 315 379.2 540.7 723.7 620.9 132 30.7 231.5 103 337.9 172.3" style="fill:#992634;fill-opacity:1;fill-rule:nonzero;stroke:none" transform="matrix(.13333 0 0 -.13333 0 6666.667)"/><path d="M17190.7 25882.4c-1.3-232.9 99.9-434.7 193.5-638.9-390.7-766.3-573.2-1582.7-587.3-2439.7-76.7 239.2-84.7 489.6-91.3 735.3-14.4 534-25.8 1069.7.9 1602.7 28.8 571.8 143.5 1134 292.2 1687.7 12.4 46.2 43.6 64.4 86.5 70.9 35.1-339.4 70.3-678.7 105.5-1018" style="fill:#8a202d;fill-opacity:1;fill-rule:nonzero;stroke:none" transform="matrix(.13333 0 0 -.13333 0 6666.667)"/><path d="M26463.8 34175.4c1.6-78.6-40-74.3-92.8-48.4-278.2 289.6-600.3 512.5-980.8 647.8-36.7 13-68.3 40-102.3 60.5 39.4 30.9 75.6 5.3 113.2-5.7 382.2-111.7 692.8-339.7 982.1-602.9 23.3-21.1 53.6-34.4 80.6-51.3" style="fill:#773639;fill-opacity:1;fill-rule:nonzero;stroke:none" transform="matrix(.13333 0 0 -.13333 0 6666.667)"/><path d="M16796.9 22803.8c14.1 857 196.6 1673.4 587.3 2439.7l299.1 480c73-281 14.5-565.7-33.1-834.4-138-779.8-194.8-1560.7-179.9-2351.3 7.1-372.9 61.4-732.5 224.7-1063.4 279.7-566.7 605-1118.7 1219-1372.7 431.3-178.4 765.5-451.2 1056-797 692-823.6 1554.5-1421.2 2505.5-1903.8 130.3-66.1 264.1-82.2 402.4-56.7 271.2 50.1 540.9 108.1 811.6 161.4 468.5 92.4 932.5 223.7 1419.4 127.5 210.8-41.6 369.9 36 501.1 217.7 190.1 263.3 398.9 512.5 728.5 621.9 541.8 179.9 1052.7 103 1545.6-162.6-804-913-1816.4-1378.5-3030.4-1411-692.5.2-1380.7 49.9-2048.5 244.2-1545.5 449.6-3050 981.4-4196 2196.1-378.6 514.8-789.5 1005.1-1144.4 1538-390.2 585.8-613.9 1225.8-667.9 1926.4" style="fill:#f1beb2;fill-opacity:1;fill-rule:nonzero;stroke:none" transform="matrix(.13333 0 0 -.13333 0 6666.667)"/><path d="M18609.2 19339.4c1146-1214.7 2650.5-1746.5 4196-2196.1 667.8-194.3 1356-244 2048.5-244.2 249.6-435.7 552.4-812.5 1036.2-1013.9 275.7-114.7 544-250.6 770.2-453.5-15.8-15.4-31.5-30.8-47.3-46.1-307.7 320.5-718.1 344.7-1121.1 382.7-1092.1 103-2126.5 427.1-3141.8 820.2-895.1 346.6-1767.8 746.9-2574.6 1268-583.4 376.8-1178.3 750.4-1620.1 1306.7-36.2 45.6-124.2 87.9-78.3 156.9 19.2 29 106.3 14.8 162.7 16.7 89.3 3.1 178.7 3.2 268.1 4.6 33.9-.6 67.7-1.3 101.5-2" style="fill:#6d1923;fill-opacity:1;fill-rule:nonzero;stroke:none" transform="matrix(.13333 0 0 -.13333 0 6666.667)"/><path d="M26612.8 15385.6c15.8 15.3 31.5 30.7 47.3 46.1 195.4-146.3 390.7-292.6 586.1-438.9-.8-18.7-1.5-37.3-2.2-56z" style="fill:#5c1a22;fill-opacity:1;fill-rule:nonzero;stroke:none" transform="matrix(.13333 0 0 -.13333 0 6666.667)"/><path d="M27246.2 14992.8c-195.4 146.3-390.7 292.6-586.1 438.9-226.2 202.9-494.5 338.8-770.2 453.5-483.8 201.4-786.6 578.2-1036.2 1013.9 1214 32.5 2226.4 498 3030.4 1411 123.4 61.5 146.6 201.7 230.8 294 279.6 97.8 559.1 195.6 838.7 293.4-404-505.2-705.4-1078.7-1071.4-1609.3-179.3-259.7-352.3-523.8-523.8-788.8-55-85.1-176.2-167.7-132-267.7 54.4-123.1 204.2-50.4 310.3-73.6-90.1-72.3-93-120.7 11-200.3 222.8-170.6 249.1-343.5 99.5-585.4-73.2-118.4-32.1-165.6 79.8-183 284-44.1 499.1-210.3 710.7-385.9 213.3-177.1 484.5-80.8 722.9-147.6 132.5-37.1 383.5 18.5 378.2-106.6-7.5-176.3-237.3-60.6-366.3-93.4-22.9-5.8-48.5-1.2-72.8-1.3-357.2-21.9-706.3 42.9-1054.7 105.2-312 55.8-557.1 243.1-798.8 433" style="fill:#942230;fill-opacity:1;fill-rule:nonzero;stroke:none" transform="matrix(.13333 0 0 -.13333 0 6666.667)"/><path d="M28953.6 18897.5c-279.6-97.8-559.1-195.6-838.7-293.4 102.1 254.9 206.4 509 304.9 765.2 27.4 71.2 114.8 145.3 54.5 220-72.1 89.4-167.6 10.9-245.4-15-607-201.8-1220.4-374.4-1859.5-439.4-930.3 35-1820.1 267.1-2697.4 557.5-82.9 27.4-157.4 80.3-235.8 121.5-68.1 88.5-69 160.5 49.8 203 131-38.4 260.4-83.9 393.3-114.1 757.3-172 1511-243.4 2245.3 101.4 313.1 119.6 619.6 84.7 922.3-39.5 28.9-31.2 63.8-43.5 105.7-33.5 205-52.9 347.7 39.1 446.3 206.3 179.3 304.4 435.5 512.2 757.9 650.7 282.4 121.2 541.1 287.6 799.2 453.5 86.1-135.6 47.1-285.2 29.9-424.5-25.6-208-126.1-415.6-111.7-617.5 19.6-272.7-69.4-483.4-202.5-703-81.9-135.2-268-285-211.4-406.5 44.6-95.6 283.6-100.6 436.3-145.8 1.6-13.9 2.3-27.8 2-41.8-48.3-1.6-96.7-3.3-145-5.1" style="fill:#4d1217;fill-opacity:1;fill-rule:nonzero;stroke:none" transform="matrix(.13333 0 0 -.13333 0 6666.667)"/><path d="M33576.9 26603.3c-238.4-239.1-383.5-536.7-464.6-853.7-141.1-552.2-294.8-1096.7-529.4-1618.9-144.6-321.8-119.8-669.1-45.9-1006.4 116.2-530 89.1-1047.3-101.2-1555.7-46.4-124-58.7-245.1-31.3-380.6 47.8-235.8-35.6-332.6-283.4-338.2-156.1-3.5-308.8-23.3-458.4-58.2-386.9-90.1-479.2-389-218.7-689.5 108.8-125.5 251.5-204.3 393.8-283.4-300.3-305.9-694.3-442.8-1081.5-584.5-451.3-165.1-921.4-253.1-1401.6-283.5 89.9 80.5 180.8 156.9 250.6 260.2 481.6 712.6 959.9 1427.6 1457.2 2129 219.4 309.4 387.8 633.2 485 998.8 251.2 945.3 334.2 1913.8 377.2 2884.3 31.9 721.4 11.3 1445.2 13.8 2167.9 1.9 538.3 98.6 1101.9-403.3 1506.1-13.5 10.9-11.9 40.7-17.3 61.7 20.7-4.3 42.2-6.6 62.1-13.4 172.6-58.6 305.1-180.3 448.3-285.3 494.3-388.7 929.4-832.3 1268-1365.6 116.4-221 223.9-445.8 280.6-691.1" style="fill:#c86966;fill-opacity:1;fill-rule:nonzero;stroke:none" transform="matrix(.13333 0 0 -.13333 0 6666.667)"/><path d="M32028.3 28660c-143.2 105-275.7 226.7-448.3 285.3-19.9 6.8-41.4 9.1-62.1 13.4 5.4-21 3.8-50.8 17.3-61.7 501.9-404.2 405.2-967.8 403.3-1506.1-2.5-722.7 18.1-1446.5-13.8-2167.9-43-970.5-126-1939-377.2-2884.3-97.2-365.6-265.6-689.4-485-998.8-497.3-701.4-975.6-1416.4-1457.2-2129-69.8-103.3-160.7-179.7-250.6-260.2-85.9-2.1-172-4.2-258.1-6.3-152.7 45.2-391.7 50.2-436.3 145.8-56.6 121.5 129.5 271.3 211.4 406.5 133.1 219.6 222.1 430.3 202.5 703-14.4 201.9 86.1 409.5 111.7 617.5 17.2 139.3 56.2 288.9-30 424.5 62.6 47.5 125.3 95.1 187.9 142.6 40.5-50.5 86.1-21 132.5-10.9 958.9 209 1568.8 799.9 1874.2 1719.1 105.3 316.8 246.1 628.5 194.6 977.4-3.5 68.1-7 136.1-10.5 204.2l11.7-9c94-87.2 93.6-18.4 91.5 55.1-12.4 451.1 46.7 900.3 7.8 1353.8-40.3 468.8-195.8 897.5-371.7 1323.9-20.2 48.9-50.2 99.3-77.8 1.5-101.8 229-176.5 475.4-310.5 683.6-419.2 651-712.8 1364.2-1055 2053.3 371.2-80.9 718-233.8 1075.1-356.8 111.4-38.4 211.1-161.3 352.1-83.2 211.6-148 425.4-293.1 633.7-445.7 63-46.1 164.6-75.1 136.8-190.6" style="fill:#952430;fill-opacity:1;fill-rule:nonzero;stroke:none" transform="matrix(.13333 0 0 -.13333 0 6666.667)"/><path d="M31257.8 29296.3c-141-78.1-240.7 44.8-352.1 83.2-357.1 123-703.9 275.9-1075.1 356.8-167.6 193.3-263.3 449-526.4 559.1-273.4 114.5-395.8 347.8-438.2 630.4-14.5 96.4-30.7 192.5-47.8 288.4-28.7 161.6-122.9 232.6-289.9 228.2-276.3-7.2-553.3 7.6-828.5-30.4-787.6-108.9-1573.3-101.1-2356.9 38.2 169 89.2 359.8 80.8 540.2 116.2 702.5 137.9 995.7 543.9 1116.4 1290.3 8.5 52.5-31 127.2 30.8 153 60 25.1 95.9-48.2 136.8-82.3 192.7-160.9 388.9-318.7 570-492.1 361.3-346.1 789.1-562.5 1268-689.6 578.2-153.4 1095.8-439.4 1596.5-754.7 311.2-196 385.9-543.6 490.6-865.6 37.2-114.2 37.6-239.8 106.2-344.5-17-166.1 43.4-322.6 59.4-484.6" style="fill:#461116;fill-opacity:1;fill-rule:nonzero;stroke:none" transform="matrix(.13333 0 0 -.13333 0 6666.667)"/><path d="M33576.9 26603.3c-56.7 245.3-164.2 470.1-280.6 691.1 117.7 42.2 112.8-73 132.6-121.7 85.2-210.5 253.8-401.9 172.4-656.5-8.1 29.1-16.3 58.1-24.4 87.1" style="fill:#6f1d22;fill-opacity:1;fill-rule:nonzero;stroke:none" transform="matrix(.13333 0 0 -.13333 0 6666.667)"/><path d="M23288.1 31351.6c113.2 47.6 231.5 48.7 351 38.6 410.9-219.9 853.8-330.4 1313.4-383.4 408.4-106.2 823.7-27.3 1235.4-43.3 203.4-8 403.2-7.2 594.7-95.8 492.2-227.9 1012.5-330.8 1553.9-356.5 265.6-12.7 531.5-58.3 752.4-238.3 368.2-299.9 559-699.4 593.6-1157.1 39.6-524.7 161.7-969.9 644.7-1281.3 324.4-209.2 521.7-550.3 473-957.7-35.9-299.8-44-597.7-47.6-897.5-81.7 150.7-25.9 313.7-41.3 470.3-17.1 173.8-248.3 300.7-387.9 210.6-76.3 324.1-263 585-470.1 836.6-460.2 559.3-986.6 1045.9-1582.8 1457.1-305.8 163.2-559.1 425.7-919.2 486.2-1100.8 576.8-2231.9 1070.8-3470.7 1271-183.6 29.7-371.5 47.2-548.1 100.8-193.3 58.8-381.7 146.5-420.2 385.1 125.3 51.5 250.6 103.1 375.8 154.6" style="fill:#c96c69;fill-opacity:1;fill-rule:nonzero;stroke:none" transform="matrix(.13333 0 0 -.13333 0 6666.667)"/><path d="M30752.5 25979.3c3.7 299.8 11.8 597.7 47.7 897.5 48.7 407.4-148.6 748.5-473 957.7-483 311.4-605.1 756.6-644.7 1281.3-34.6 457.7-225.4 857.2-593.6 1157.1-220.9 180-486.8 225.6-752.4 238.3-541.4 25.7-1061.7 128.6-1553.9 356.5-191.5 88.6-391.3 87.8-594.7 95.8-411.7 16-827-62.9-1235.4 43.3 75.6 72.3 210.5 38.7 265.1 150.2 28 57.3 80.5 111 57.6 178.1-27.5 80.7-106.5 55.2-167.7 59.4-111.7 7.6-223.6 12.3-335.4 18.1 107.1 70.7 228.7 7.6 340.3 37.1 76.8.2 153.7.4 230.5.5 783.6-139.3 1569.3-147.1 2356.9-38.2 275.2 38 552.2 23.2 828.5 30.4 167 4.4 261.2-66.6 289.9-228.2 17.1-95.9 33.3-192 47.8-288.4 42.4-282.6 164.8-515.9 438.2-630.4 263.1-110.1 358.8-365.8 526.4-559.1 342.2-689.1 635.8-1402.3 1055-2053.3 134-208.2 208.7-454.6 310.5-683.6 171.4-904.5 285.9-1816.2 350.2-2734.3l-11.7 9c-124.4 333.3-263.8 656.6-487.2 941.2-173.3 220.9-249 489-294.9 764" style="fill:#f1bfb2;fill-opacity:1;fill-rule:nonzero;stroke:none" transform="matrix(.13333 0 0 -.13333 0 6666.667)"/><path d="M23288.1 31351.6c-125.2-51.5-250.5-103.1-375.8-154.6-172.6-16.9-323-109.6-406.7-239.1-207.3-320.9-517.6-446.3-860.2-538.4-314.8-84.5-616.7-211.8-869.2-415.7-150.5-121.5-365.2-216.1-364.5-465.3-354.3-314.2-716.7-619.9-1036.9-970.5-24.7 368.5 194.8 649.6 390.2 909.7 244 324.7 477.1 675.6 840.8 894.3 548.3 313.3 1129.2 563.4 1667.7 899.2 300.3 187.3 660.3 260.8 1014.6 80.4" style="fill:#721a24;fill-opacity:1;fill-rule:nonzero;stroke:none" transform="matrix(.13333 0 0 -.13333 0 6666.667)"/><path d="M25112.4 31449.7c-111.6-29.5-233.2 33.6-340.3-37.1 111.8-5.8 223.7-10.5 335.4-18.1 61.2-4.2 140.2 21.3 167.7-59.4 22.9-67.1-29.6-120.8-57.6-178.1-54.6-111.5-189.5-77.9-265.1-150.2-459.6 53-902.5 163.5-1313.4 383.4 488.5 83.4 977.8 148.5 1473.3 59.5" style="fill:#efb4a7;fill-opacity:1;fill-rule:nonzero;stroke:none" transform="matrix(.13333 0 0 -.13333 0 6666.667)"/><path d="M26369.4 19134.9c639.1 65 1252.5 237.6 1859.5 439.4 77.8 25.9 173.3 104.4 245.4 15 60.3-74.7-27.1-148.8-54.5-220-98.5-256.2-202.8-510.3-304.9-765.2-84.2-92.3-107.4-232.5-230.8-294-492.9 265.6-1003.8 342.5-1545.6 162.6-329.6-109.4-538.4-358.6-728.5-621.9-131.2-181.7-290.3-259.3-501.1-217.7-486.9 96.2-950.9-35.1-1419.4-127.5-270.7-53.3-540.4-111.3-811.6-161.4-138.3-25.5-272.1-9.4-402.4 56.7-951 482.6-1813.5 1080.2-2505.5 1903.8-290.5 345.8-624.7 618.6-1056 797-614 254-939.3 806-1219 1372.7-163.3 330.9-217.6 690.5-224.7 1063.4-14.9 790.6 41.9 1571.5 179.9 2351.3 47.6 268.7 106.1 553.4 33.1 834.4 22 56.9 58 104.9 123.2 97.1 51.9-6.2 44.9-53.1 40-95.8-72.9-636.2 183.3-1178.3 515.3-1685.6 249-380.6 336.9-824.2 539-1221 574.7-1128.4 1106.9-2284.6 2080.2-3149.6 72.7-64.6 150.3-123.9 220.9-190.8 272.2-257.7 593.6-300.8 947.2-232.2 503.2 97.7 998.3 48.5 1492.7-78.2 782.5-200.7 1577.7-147.1 2370.7-83.8 118.5 9.5 246-19.4 356.9 51.3" style="fill:#c86b68;fill-opacity:1;fill-rule:nonzero;stroke:none" transform="matrix(.13333 0 0 -.13333 0 6666.667)"/><path d="M19374.8 28568c320.2 350.6 682.6 656.3 1036.9 970.6 797 557.3 1679.6 691.2 2624.9 545.6 661.4-101.9 1293.6-297.8 1912.3-545.3 608-369.9 1193-770.8 1708.8-1265.2 4.3-16.8 8.5-33.5 12.7-50.3-112.6-90.1-137.9-232-206.5-348.1-51.6 72.3-100.1 147.2-155.4 216.6-215.7 271.1-451.2 531.4-819.3 563-854.9 73.4-1650.7 318.9-2387.9 757.3-312 185.6-636.2 244.3-967.3 53.6-233.2-134.2-439-300.7-606.9-517.4-412.9-532.8-754-1114.9-1151.1-1658.3-417-570.9-573.7-1208.4-494.8-1907.5 21.2-471.3 49.5-941.8 142.9-1405.7 122.6-935.9 491.5-1772.9 1021.7-2545.2-298.3 96.5-492.4 341-728.1 524-202.9 157.5-384.1 345.4-539 554.2-775.2 1278.1-1196.2 2673.1-1370 4149.7-7.2 637.9 191.7 1184.2 693.9 1604.3 103 86.2 209.4 177.9 272.2 304.1" style="fill:#c86967;fill-opacity:1;fill-rule:nonzero;stroke:none" transform="matrix(.13333 0 0 -.13333 0 6666.667)"/><path d="M21045.8 21431.7c-530.2 772.3-899.1 1609.3-1021.7 2545.2 48.5 70.9 88.5 162.8 194.9 64.6 44.1-40.8 85.4-49.3 94.1 30.6 130.5-247.5 203.4-523.7 373.3-751.3 30.9-41.4 28.2-121.9 100.8-110.7 11.7 1.8 18.5 104.8 9.6 158.1-49.9 299.6-92.4 599-50.5 903.6 81.4 561.8 183.3 1118.6 405.9 1645.6 62.4-65.8 23.2-134.2 9.8-205.1-175.4-931.5 18.9-1797.7 467.1-2618.3 154.2-384 307.9-764.6 683.4-1002 169.6-107.3 275.3-286.3 316.4-476.4 85.1-393.6 255-768.1 269.5-1177.1 2.9-81.1 30.9-140 104.2-176.1 129.6-63.6 259.1-127.5 388.6-191.3 31.6-18 63.2-36.1 94.8-54.2-118.8-42.5-117.9-114.5-49.8-203-677.8 262.7-1283.7 645.4-1846.3 1101.5-195.1 158.1-382.1 323.8-544.1 516.3" style="fill:#3e0e12;fill-opacity:1;fill-rule:nonzero;stroke:none" transform="matrix(.13333 0 0 -.13333 0 6666.667)"/><path d="M18408.7 26659.6c173.8-1476.6 594.8-2871.6 1370-4149.7-236.8 70.2-368.6 273.6-507.2 444.9-873 1078.5-1087.8 2324.7-891.9 3666.9 2 13.8 19 25.4 29.1 37.9" style="fill:#431114;fill-opacity:1;fill-rule:nonzero;stroke:none" transform="matrix(.13333 0 0 -.13333 0 6666.667)"/><path d="M23486 20016.9c-31.6 18.1-63.2 36.2-94.8 54.2 27.9 14.2 55.4 39.8 83.8 40.8 715.3 24.8 1409.6 204.6 2116.9 285.8 569.2 65.4 1118.5 293.6 1706.4 208.6 83.8-12.1 168.6 18.9 225.7 75.9 407 406.2 878.3 756.2 1182.1 1254.1 149.6 245.2 303.5 478.9 514.1 674 168 155.6 302.2 338.6 425.6 530.2 89.3-35.9 117.8-130.8 183.9-189.2-43.8-197.5-110.3-393-126.8-592.7-40.8-495.3-275-768.4-780.1-868.9-663.3-132-1058.5-629.1-1370-1184-100.5-179-186.1-334.6-400.2-374.5-41.9-10-76.8 2.3-105.8 33.5-270.4 348.1-645.3 364.1-922.2 39.5-734.3-344.8-1488-273.4-2245.3-101.4-132.9 30.2-262.3 75.7-393.3 114.1" style="fill:#ca6865;fill-opacity:1;fill-rule:nonzero;stroke:none" transform="matrix(.13333 0 0 -.13333 0 6666.667)"/><path d="M27152.6 19931.2c214.1 39.9 299.7 195.5 400.2 374.5 311.5 554.9 706.7 1052 1370 1184 505.1 100.5 739.3 373.6 780.1 868.9 16.5 199.7 83 395.2 126.8 592.7 143 332.6 281.9 667.1 431.3 996.9 56.9 125.8 144.9 232.6 295 260.9-21.3-42.6-50.6-83.5-29.3-135.3-65.2-502.9-307.6-935.6-542.3-1371.4-111.2-138.4-136.3-311.2-179.5-474-85.1-320.7-226.8-606.7-461.1-844.1-62.6-47.5-125.3-95.1-187.9-142.6-258-165.9-516.7-332.3-799.1-453.5-322.4-138.5-578.6-346.3-757.9-650.7-98.6-167.2-241.3-259.2-446.3-206.3" style="fill:#f0bcaf;fill-opacity:1;fill-rule:nonzero;stroke:none" transform="matrix(.13333 0 0 -.13333 0 6666.667)"/><path d="M26124.6 20004.2c276.9 324.6 651.8 308.6 922.2-39.5-302.6 124.2-609.1 159.1-922.2 39.5" style="fill:#e6aaa3;fill-opacity:1;fill-rule:nonzero;stroke:none" transform="matrix(.13333 0 0 -.13333 0 6666.667)"/><path d="M29343.8 21384.3c234.3 237.4 376 523.4 461.1 844.1 43.2 162.8 68.3 335.6 179.5 474 257 44.6 522.3 64.7 730 251.9 409.3 273.3 662.1 663.1 830.7 1115.6 51.5-348.9-89.3-660.6-194.6-977.4-305.4-919.2-915.3-1510.1-1874.2-1719.1-46.4-10.1-92-39.6-132.5 10.9" style="fill:#4a1116;fill-opacity:1;fill-rule:nonzero;stroke:none" transform="matrix(.13333 0 0 -.13333 0 6666.667)"/><path d="M31545.1 24069.9c-168.6-452.5-421.4-842.3-830.7-1115.6 74.2 344.1 34.3 693.3 40 1040 4.5 272.4 40 548.4-36.2 818.1 4.3 212.7-1.4 427.5-88.1 623.5-173.3 391.6-228 810.4-306.7 1224.3 139.6 90.1 370.8-36.8 387.9-210.6 15.4-156.6-40.4-319.6 41.3-470.3 45.8-275 121.5-543.1 294.8-764 223.4-284.6 362.8-607.9 487.2-941.2 3.5-68.1 7-136.1 10.5-204.2" style="fill:#c46263;fill-opacity:1;fill-rule:nonzero;stroke:none" transform="matrix(.13333 0 0 -.13333 0 6666.667)"/><path d="M31546.3 24265.1c-64.3 918.1-178.8 1829.8-350.2 2734.3 27.6 97.8 57.6 47.4 77.8-1.5 175.9-426.4 331.4-855.1 371.7-1323.9 38.9-453.5-20.2-902.7-7.8-1353.8 2.1-73.5 2.5-142.3-91.5-55.1" style="fill:#561117;fill-opacity:1;fill-rule:nonzero;stroke:none" transform="matrix(.13333 0 0 -.13333 0 6666.667)"/><path d="M24948.8 29538.9c-618.6 247.5-1250.8 443.4-1912.2 545.3-945.3 145.6-1827.9 11.7-2624.9-545.6-.7 249.1 214 343.7 364.5 465.2 252.5 203.9 554.4 331.2 869.2 415.7 342.6 92.1 652.9 217.5 860.2 538.4 83.7 129.5 234.1 222.2 406.7 239.1 38.5-238.6 226.9-326.3 420.2-385.1 176.6-53.6 364.5-71.1 548.1-100.8 1238.8-200.2 2369.9-694.2 3470.7-1271-324.5 69.1-647.4 147.4-981.7 153.4-477.7 89.5-951.3 72.1-1420.8-54.6" style="fill:#441116;fill-opacity:1;fill-rule:nonzero;stroke:none" transform="matrix(.13333 0 0 -.13333 0 6666.667)"/><path d="M26369.6 29593.5c334.3-6 657.2-84.3 981.7-153.4 360.1-60.5 613.4-323 919.2-486.2 140.2-224.8 285.1-446.9 419.5-675.1 175.9-299.1 407.1-542.1 695.1-734.5 216.5-144.6 415.2-309.1 547.9-539.7-214.2-26.7-409.9-74-396.5-354.9-180.2 177.2-381.9 321.7-605 443.4-234.1 127.7-458.8 274.5-657.7 455.7-44.3 142.9-162.9 236.8-237.4 360.3-355.2 589.4-792.2 1096.7-1425.7 1405-101.4 49.3-200.1 105.5-295.5 165.7-34.8 22-104.6 39.7-81.5 92 10.1 22.8 88.5 15.4 135.9 21.7" style="fill:#b55154;fill-opacity:1;fill-rule:nonzero;stroke:none" transform="matrix(.13333 0 0 -.13333 0 6666.667)"/><path d="M29933 27004.6c-132.7 230.6-331.4 395.1-547.9 539.7-288 192.4-519.2 435.4-695.1 734.5-134.4 228.2-279.3 450.3-419.5 675.1 596.2-411.2 1122.6-897.8 1582.8-1457.1 207.1-251.6 393.8-512.5 470.1-836.6 78.7-413.9 133.4-832.7 306.7-1224.3 86.7-196 92.4-410.8 88.1-623.5-2.1-170.4-6.4-340.7-5.4-511 .8-130-39.4-220.9-186.1-227.6-21.3 51.8 8 92.7 29.3 135.3-78.2 264.4-123.3 277.5-383.1 112-28.4 45.5-56.9 91.1-85.3 136.6 127.2 539.4 161.7 1086.9 133.3 1638.4-16.7 326-77.2 642.1-287.9 908.5" style="fill:#58161b;fill-opacity:1;fill-rule:nonzero;stroke:none" transform="matrix(.13333 0 0 -.13333 0 6666.667)"/><path d="M26670.5 28223.4c-4.3 16.8-8.5 33.5-12.7 50.3 90.1 84.6 146.2-12.5 206.7-45.6 494.9-271.1 943.9-611.5 1403-936.7 199.3-189.9 411.1-368.5 595.2-572.3 418.6-463.3 781.2-959.2 782.4-1625.8-34.4-90.7-78.8-178.9-101.4-272.5-136-561.3-367.7-1070.9-781.9-1485.2-296.8-214.4-583.4-445.2-928.9-581.9-39 88.3-32.2 84.5 43.6 217.7 393.1 691.4 542.8 1411.7 244.7 2181.4-11.2 263.6-119.3 503.2-201 746.5-284 844.5-604.2 1672.7-1249.7 2324.1" style="fill:#28090a;fill-opacity:1;fill-rule:nonzero;stroke:none" transform="matrix(.13333 0 0 -.13333 0 6666.667)"/><path d="M19881.2 25382.6c-78.9 699.1 77.8 1336.6 494.8 1907.5 397.1 543.4 738.2 1125.5 1151.1 1658.3 167.9 216.7 373.7 383.2 606.9 517.4 331.1 190.7 655.3 132 967.3-53.6 737.2-438.4 1533-683.9 2387.9-757.3 368.1-31.6 603.6-291.9 819.3-563 55.3-69.4 103.8-144.3 155.4-216.6 37.2-159.1 178.8-273.1 192.2-442.6-170.3 136.8-326.8 290.7-520.7 397.9-741.2 409.7-1537.4 632-2373.3 754.5-1637.6 240-3314.5-842.4-3733.2-2441.9-65.2-249.4-99.3-506.9-147.7-760.6" style="fill:#a23a40;fill-opacity:1;fill-rule:nonzero;stroke:none" transform="matrix(.13333 0 0 -.13333 0 6666.667)"/><path d="M19881.2 25382.6c48.4 253.7 82.5 511.2 147.7 760.6 418.7 1599.5 2095.6 2681.9 3733.2 2441.9 835.9-122.5 1632.1-344.8 2373.3-754.5 193.9-107.2 350.4-261.1 520.7-397.9 340.8-396.4 705.5-774.8 937.7-1252.5-88.7-20.2-146.4 146.8-249.2 41.2-79.3 129.7-158.7 259.4-238 389.1-63.9 161.9-180.3 286.3-297.5 409.1-565.6 592.3-1266.3 955.4-2044.7 1171.3-1050.4 291.5-2092.4 390.7-3066.2-254.7-707.5-468.9-1273.9-1051.1-1487.6-1906.8-13.6-36.9-33.1-72.7-39.9-110.9-111.6-627.6-66.7-1243.4 142.4-1846.4-8.7-79.9-50-71.4-94.1-30.6-106.4 98.2-146.4 6.3-194.9-64.6-93.4 463.9-121.7 934.4-142.9 1405.7" style="fill:#210a0a;fill-opacity:1;fill-rule:nonzero;stroke:none" transform="matrix(.13333 0 0 -.13333 0 6666.667)"/><path d="M28267.5 27291.4c-459.1 325.2-908.1 665.6-1403 936.7-60.5 33.1-116.6 130.2-206.7 45.6-515.9 494.4-1100.9 895.3-1708.9 1265.2 469.4 126.7 943 144.1 1420.7 54.6-47.4-6.3-125.8 1.1-135.9-21.7-23.1-52.3 46.7-70 81.5-92 95.4-60.2 194.1-116.4 295.5-165.7 633.5-308.3 1070.5-815.6 1425.7-1405 74.5-123.5 193.1-217.4 237.4-360.4-50.1-84.6 18.2-172.1-6.3-257.3" style="fill:#8f222e;fill-opacity:1;fill-rule:nonzero;stroke:none" transform="matrix(.13333 0 0 -.13333 0 6666.667)"/><path d="M27593.8 26180.2c-232.2 477.7-596.9 856.1-937.7 1252.5-13.4 169.5-155 283.5-192.2 442.6 68.6 116.1 93.9 258 206.5 348.1 645.6-651.4 965.8-1479.6 1249.8-2324.1 81.7-243.3 189.8-482.9 201-746.5-197.5 331.3-280.5 721.4-527.4 1027.4" style="fill:#b9585a;fill-opacity:1;fill-rule:nonzero;stroke:none" transform="matrix(.13333 0 0 -.13333 0 6666.667)"/><path d="M29645.8 23140.5c-123.4-191.6-257.6-374.6-425.6-530.2-210.6-195.1-364.5-428.8-514.1-674-303.8-497.9-775.1-847.9-1182.1-1254.1-57.1-57-141.9-88-225.7-75.9-587.9 85-1137.2-143.2-1706.4-208.6-707.3-81.2-1401.6-261-2116.9-285.8-28.4-1-55.9-26.6-83.8-40.8-129.5 63.8-259 127.7-388.6 191.3-73.3 36.1-101.3 95-104.2 176.1-14.5 409-184.4 783.5-269.5 1177.1-41.1 190.1-146.8 369.1-316.4 476.4-375.5 237.4-529.2 618-683.4 1002 0 64.5-.1 129.1-.1 193.7 34.4-2.8 71.4-41.9 102.2 7.1 87.6-163.2 170.1-329.3 263.5-489.1 472.1-807.2 1153-1364.4 2028.4-1688.6 127.9-47.4 219.4-58 204.5 122.2 24.2-230.6 169.8-265.5 368.9-246.3 180.7 17.5 338.4 103.7 511.5 140.5 113.7-75.2 237.8-42.7 353.1-18.7 170.3 35.3 343.6 43.6 508.7 16.7 292.1-47.6 583.7-40.1 874.6-29.5 727 26.7 1328.4 280.3 1671.1 974.1 75.8 153.4 181.1 286.7 293.7 416.5 365.7 421.8 780.1 806.7 1023.7 1323 19.8 42 55.7 55.6 96.9 62.8-29.2-271.1-186.2-493.1-284-737.9" style="fill:#962432;fill-opacity:1;fill-rule:nonzero;stroke:none" transform="matrix(.13333 0 0 -.13333 0 6666.667)"/><path d="M21152.2 25917.4c-222.6-527-324.5-1083.8-405.9-1645.6-22.8-49.3-45.6-98.5-68.5-147.8-21.6 48.5-51.5 95.1-63.4 145.9-128.1 546.8-297.3 1087.4-256.9 1660.3 201.2 933.9 800.7 1504 1669.6 1828.1 552.2 206.1 1127 181.5 1700.9 167-165.8-94-346.3-21.1-518-45.7-88.1-12.6-211 48.6-249.5-79.9-32.5-108.5-28.3-224.8 83.7-302-145-52.1-289.9-104.2-434.8-156.2-167.6-44.6-323.3-110.6-442.5-243.1l1.7.9c-499.8-255.6-833.9-653.5-1016.4-1181.9" style="fill:#bc5858;fill-opacity:1;fill-rule:nonzero;stroke:none" transform="matrix(.13333 0 0 -.13333 0 6666.667)"/><path d="M20357.5 25930.2c-40.4-572.9 128.8-1113.5 256.9-1660.3 11.9-50.8 41.8-97.4 63.4-145.9 22.9 49.3 45.7 98.5 68.5 147.8-41.9-304.6.6-604 50.5-903.6 8.9-53.3 2.1-156.3-9.6-158.1-72.6-11.2-69.9 69.3-100.8 110.7-169.9 227.6-242.8 503.8-373.3 751.3-209.1 603-254 1218.8-142.4 1846.4 6.8 38.2 26.3 74 40 110.9 48.9-33.1 97.8-66.2 146.8-99.2" style="fill:#811b28;fill-opacity:1;fill-rule:nonzero;stroke:none" transform="matrix(.13333 0 0 -.13333 0 6666.667)"/><path d="M21152.2 25917.4c182.5 528.4 516.6 926.3 1016.4 1181.9-198-251.1-471.9-438.6-588.4-758.7-373.3-1025.7-335.1-2041.2 48.8-3053 0-64.5.1-129.1.1-193.6-448.2 820.6-642.5 1686.8-467.1 2618.3 13.4 70.9 52.6 139.3-9.8 205.1" style="fill:#781b25;fill-opacity:1;fill-rule:nonzero;stroke:none" transform="matrix(.13333 0 0 -.13333 0 6666.667)"/><path d="M29645.8 23140.5c97.8 244.8 254.8 466.8 284 737.9 17.1 182.7 155.2 298.9 243.1 442.7 259.8 165.5 304.9 152.4 383.1-112-150.1-28.3-238.1-135.1-295-260.9-149.4-329.8-288.3-664.3-431.3-996.9-66.1 58.4-94.6 153.3-183.9 189.2" style="fill:#c15e5f;fill-opacity:1;fill-rule:nonzero;stroke:none" transform="matrix(.13333 0 0 -.13333 0 6666.667)"/><path d="M30526.7 24073.8c146.7 6.7 186.9 97.6 186.1 227.6-1 170.3 3.3 340.6 5.4 511 76.2-269.7 40.7-545.7 36.2-818.1-5.7-346.7 34.2-695.9-40-1040-207.7-187.2-473-207.3-730-251.9 234.7 435.8 477.1 868.5 542.3 1371.4" style="fill:#7e1f2a;fill-opacity:1;fill-rule:nonzero;stroke:none" transform="matrix(.13333 0 0 -.13333 0 6666.667)"/><path d="M28761.8 23335.6c414.2 414.3 645.9 923.9 781.9 1485.2 22.6 93.6 67 181.8 101.4 272.5 118 84.6 135.6 208.2 142.8 341.8 22.9 427.7-55.4 833-251.4 1214.6-13.4 280.9 182.3 328.2 396.5 354.9 210.7-266.4 271.2-582.5 287.9-908.5 28.4-551.5-6.1-1099-133.4-1638.3-183.2-511.7-637.8-794.4-985.3-1167.4-46.8 110.7 68.7 127.9 111.8 183.1 48.6 62.2 85.2 114 45.4 194-17.2 34.6-22.1 75.3-32.6 113.2-27.8-27.5-58.6-52.7-82.8-83.1-110.5-138.7-187.5-312.2-382.2-362" style="fill:#b2484f;fill-opacity:1;fill-rule:nonzero;stroke:none" transform="matrix(.13333 0 0 -.13333 0 6666.667)"/><path d="M29536.5 26649.7c196-381.6 274.3-786.9 251.4-1214.6-7.2-133.6-24.8-257.2-142.8-341.8-1.2 666.6-363.8 1162.5-782.4 1625.8-184.1 203.8-395.9 382.4-595.2 572.3 24.5 85.2-43.8 172.7 6.3 257.3 198.9-181.1 423.6-327.9 657.7-455.6 223.1-121.7 424.8-266.2 605-443.4" style="fill:#7c1f28;fill-opacity:1;fill-rule:nonzero;stroke:none" transform="matrix(.13333 0 0 -.13333 0 6666.667)"/><path d="M29102.2 23290.4c347.5 373 802.1 655.7 985.3 1167.4 28.5-45.6 57-91.2 85.4-136.7-87.9-143.8-226-260-243.1-442.7-41.2-7.2-77.1-20.8-96.9-62.8-243.6-516.3-658-901.2-1023.7-1323-112.6-129.8-217.9-263.1-293.7-416.5-342.7-693.8-944.1-947.4-1671.1-974.1-290.9-10.6-582.5-18.1-874.6 29.5-165.1 26.9-338.4 18.6-508.7-16.7-115.3-24-239.4-56.5-353.2 18.7 122.8 40.3 250.3 69.9 367.6 122.4 723.8 323.9 1431.3 687.1 2214.6 859.8 489.5 107.9 870.2 380.2 1144.3 802.2 83.1 128.1 178.2 248.6 267.8 372.5" style="fill:#460f15;fill-opacity:1;fill-rule:nonzero;stroke:none" transform="matrix(.13333 0 0 -.13333 0 6666.667)"/><path d="M24227.7 21239.3c14.8-180.2-76.7-169.6-204.6-122.2-875.4 324.2-1556.3 881.4-2028.4 1688.6-93.4 159.8-175.9 325.9-263.5 489.1-112.4 161.9-102.2 355.1-125.6 536.2-109.2 845.6-6.4 1652.6 461 2389.1 407.8 642.4 966.9 882 1706.5 724.4-77.4-67.7-172.1-43.7-257.2-37.2-181.1 14-320.3-66.7-427.2-192-571.9-670.9-710-1433.8-467.1-2274.5 179.8-622.2 562.8-1104.1 1027.9-1537.8 405.4-378 903.3-542.9 1425.4-518.9 901.5 41.4 1618.7 521.2 2255.8 1124 77.2 73 213.6 231.5 174.1 262.7-95.6 75.6-208.8-38.2-309.1-93-48.7 1.7-97.3 3.4-146 5.1-99.2 85.3-218.2 36.4-328 47-264.6 25.5-535.8-51.9-795.5 50.9 83.8 81.1 194.4 109.1 297.2 154.9 556.8 248.3 968.8 634.6 1134.6 1239.5 95.4 348 55.2 698.2-13.4 1046.2 102.8 105.6 160.5-61.4 249.2-41.2 246.9-306 329.9-696.1 527.4-1027.4 298.1-769.7 148.4-1490-244.7-2181.4-75.8-133.2-82.6-129.4-43.6-217.7-1150.3-509.9-2343.1-684.7-3556.6-309.7-1018.6 314.9-1774.5 937.9-1984.1 2061.7-38.7 207.5-112.3 406.9-223.2 589.5-31.7 149.6-62.8 299.3-95.7 448.6-7.5 34.1 18 95.2-42.7 90.2-26.2-2.1-59.7-52.3-70.2-86.6-61.2-200.2-116.6-402.3-174-603.7-4.6-13.2-9.2-26.5-13.8-39.7-126.1-377.3 21.2-712.2 153.5-1054 309.7-799.9 808.4-1419.1 1618-1759.2 216.3-90.8 422.2-206.1 632.9-310.1 101.8-166.1 137.3-350.7 150.7-541.4" style="fill:#390c10;fill-opacity:1;fill-rule:nonzero;stroke:none" transform="matrix(.13333 0 0 -.13333 0 6666.667)"/><path d="M22069 25095.2c110.9-182.6 184.5-382 223.2-589.5 209.6-1123.8 965.5-1746.8 1984.1-2061.7 1213.5-375 2406.3-200.2 3556.6 309.7 345.5 136.7 632.1 367.5 928.9 581.9 194.7 49.8 271.7 223.3 382.2 362 24.2 30.4 55 55.6 82.8 83.1 10.5-37.9 15.4-78.6 32.6-113.2 39.8-80 3.2-131.8-45.4-194-43.1-55.2-158.6-72.4-111.8-183.1-89.6-123.9-184.7-244.4-267.8-372.5-274.1-422-654.8-694.3-1144.3-802.2-783.3-172.7-1490.8-535.9-2214.6-859.8-117.3-52.5-244.8-82.1-367.6-122.4-173-36.8-330.7-123-511.4-140.5-199.1-19.2-344.7 15.7-368.9 246.3-13.3 190.7-48.8 375.3-150.6 541.4-49.9 224.1-217.7 356.3-387.9 480.5-425.5 310.4-923.3 503.7-1232.2 991.6-331.9 524-551.6 1087.5-784.3 1651.2 4.6 13.2 9.2 26.5 13.8 39.7 149.6-5.1 233 156.9 382.6 151.5" style="fill:#ac454a;fill-opacity:1;fill-rule:nonzero;stroke:none" transform="matrix(.13333 0 0 -.13333 0 6666.667)"/><path d="M20357.5 25930.2c-49 33-97.9 66.1-146.8 99.2 213.6 855.7 780 1437.9 1487.5 1906.8 973.8 645.4 2015.8 546.2 3066.2 254.7 778.4-215.9 1479.1-579 2044.7-1171.3 117.2-122.8 233.6-247.2 297.5-409.1-156.6 78.3-285.7 298.8-496.5 95.9-255 220.3-486.2 473.5-815.4 591.4-625.4 418.5-1331.5 570.8-2066.7 627.5-573.9 14.5-1148.7 39.1-1700.9-167-868.9-324.1-1468.4-894.2-1669.6-1828.1" style="fill:#6c131e;fill-opacity:1;fill-rule:nonzero;stroke:none" transform="matrix(.13333 0 0 -.13333 0 6666.667)"/><path d="M26610.1 26706.4c210.8 202.9 339.9-17.6 496.5-95.9 79.3-129.7 158.7-259.4 238-389.1 68.6-348 108.8-698.2 13.4-1046.2-165.8-604.9-577.8-991.2-1134.6-1239.5-102.8-45.8-213.4-73.8-297.2-154.9-60.1-22.3-120.1-44.9-180.3-66.8-36.1-13.1-70.8-44-111.3-10.1 29.1 24.1 58.4 47.8 87.1 72.4 133.7 115 267.3 230.3 401 345.5 118.9-84.2 161.3 38.7 205.1 92.9 276.9 342.8 491.5 724 625.6 1143.9 119.9 375.8 65.8 735.9-154.3 1067.2-62.3 93.9-126 187.1-189 280.6" style="fill:#5f151f;fill-opacity:1;fill-rule:nonzero;stroke:none" transform="matrix(.13333 0 0 -.13333 0 6666.667)"/><path d="M23773.1 26944.5c-739.6 157.6-1298.7-82-1706.5-724.4-467.4-736.5-570.2-1543.5-461-2389.1 23.4-181.1 13.2-374.3 125.6-536.2-30.8-49-67.8-9.9-102.2-7.1-383.9 1011.7-422.1 2027.2-48.8 3052.9 116.5 320.1 390.4 507.6 588.4 758.7l-1.7-.9c177.7 53.3 343.2 149.9 535.5 152.2 201.8-1.4 403.5-4.4 605.2-3.7 732.2 2.8 1199.3-429.5 1599.9-971.8-17.3-17.7-34.6-35.4-51.9-53.2-131.9 161.4-255.6 331.2-441.9 437.7-188.8 150.7-403.6 242.7-640.6 284.9" style="fill:#bc4f54;fill-opacity:1;fill-rule:nonzero;stroke:none" transform="matrix(.13333 0 0 -.13333 0 6666.667)"/><path d="M22609.4 27341.5c144.9 52 289.8 104.1 434.8 156.2 921.1 233.1 1804.7 162.9 2636.7-325.4 77.1-56.3 158.1-108.1 230.6-169.9 525.3-447.9 851.5-989.1 790.7-1708.7-72.5 108.2-20.4 284.3-186 342-26.8 485.7-260.1 859.5-635.5 1150.6-591.1 458.4-1306.9 475.6-2004.1 556.4-395.2 106.6-782.5 42.7-1168.4-53.6-39 6-78.8 10.5-98.8 52.4" style="fill:#1b0908;fill-opacity:1;fill-rule:nonzero;stroke:none" transform="matrix(.13333 0 0 -.13333 0 6666.667)"/><path d="M25680.9 27172.2c-832 488.4-1715.6 558.6-2636.7 325.5-112 77.2-116.2 193.5-83.7 302 38.5 128.5 161.4 67.3 249.5 79.9 171.7 24.6 352.2-48.3 518 45.7 735.2-56.7 1441.3-209 2066.6-627.5-76.2-7.3-111.9-51.2-113.7-125.6" style="fill:#b54e54;fill-opacity:1;fill-rule:nonzero;stroke:none" transform="matrix(.13333 0 0 -.13333 0 6666.667)"/><path d="M22609.4 27341.5c20-41.9 59.8-46.4 98.8-52.4-1.8-12.8-3.8-25.7-5.8-38.5-192.3-2.3-357.8-98.9-535.5-152.2 119.2 132.5 274.9 198.5 442.5 243.1" style="fill:#591c1d;fill-opacity:1;fill-rule:nonzero;stroke:none" transform="matrix(.13333 0 0 -.13333 0 6666.667)"/><path d="M23773.1 26944.5c237-42.2 451.8-134.2 640.6-284.9 19-187 240.2-228.5 285.5-396.6-640.3 200.1-1314.8-95.3-1614.3-706.4-355.1-724.6-154-1267.7 450.2-1724.8 701-530.2 1476.1-807.5 2381.8-749.3 528.3 34 933.8 222 1278.8 595.3 100.3 54.8 213.5 168.6 309.1 93 39.5-31.2-96.9-189.7-174.1-262.7-637.1-602.8-1354.3-1082.6-2255.8-1124-522.1-24-1020 140.9-1425.4 518.9-465.1 433.7-848.1 915.6-1027.9 1537.8-242.9 840.7-104.8 1603.6 467.1 2274.5 106.9 125.3 246.1 206 427.2 192 85.1-6.5 179.8-30.5 257.2 37.2" style="fill:#61151e;fill-opacity:1;fill-rule:nonzero;stroke:none" transform="matrix(.13333 0 0 -.13333 0 6666.667)"/><path d="M27195.7 23677.8c-345-373.3-750.5-561.3-1278.8-595.3-905.7-58.2-1680.8 219.1-2381.8 749.3-604.2 457.1-805.3 1000.2-450.2 1724.8 299.5 611.1 974 906.5 1614.4 706.4 159.6-206.3 293.3-427.1 374.3-676.7 9.6-29.7 25.9-72.8 12.9-91.2-33.4-47.4-68.1 3.4-101.9 14.6-217 71.7-411.2 34.5-592.6-106.7-236.3-184-411.3-416.3-527.2-686.9-231.4-540.1 63.5-1084.7 640.8-1203.4 319.6-65.6 627.1 17.1 935.8 80.8 533.9 70.7 1071.1 79.5 1608.3 89.4 48.7-1.7 97.3-3.4 146-5.1" style="fill:#9f2e38;fill-opacity:1;fill-rule:nonzero;stroke:none" transform="matrix(.13333 0 0 -.13333 0 6666.667)"/><path d="M21672.6 24904c232.7-563.7 452.4-1127.2 784.3-1651.2 308.9-487.9 806.7-681.2 1232.2-991.6 170.2-124.2 338-256.4 387.9-480.5-210.7 104-416.6 219.3-632.9 310.1-809.6 340.1-1308.3 959.3-1618 1759.2-132.3 341.8-279.6 676.7-153.5 1054" style="fill:#6c1922;fill-opacity:1;fill-rule:nonzero;stroke:none" transform="matrix(.13333 0 0 -.13333 0 6666.667)"/><path d="M27049.7 23682.9c-537.2-9.9-1074.4-18.7-1608.3-89.4 84.2 62.5 47.3 96.5-27.5 126.4-211.7 84.7-432.3 105.7-658.5 113.4-92 3.1-300-27.2-146 189.6 199.3-21.4 387.7-1.5 542.8 144 119 22.4 238.1 43.7 356.9 67.3 471.9 93.5 775.1 367 923.3 829.4 60.8 189.7 86.6 376.9 83.9 572.1 165.5-57.7 113.4-233.8 185.9-342-31.2-470.8-287.5-830.2-579.5-1171.9-133.7-115.2-267.3-230.5-401-345.5-28.7-24.6-58-48.3-87.1-72.4 40.5-33.9 75.2-3 111.3 10.1 60.2 21.9 120.2 44.5 180.3 66.8 259.7-102.8 530.9-25.4 795.5-50.9 109.8-10.6 228.8 38.3 328-47" style="fill:#290b0c;fill-opacity:1;fill-rule:nonzero;stroke:none" transform="matrix(.13333 0 0 -.13333 0 6666.667)"/><path d="M22069 25095.2c-149.6 5.4-233-156.6-382.6-151.5 57.4 201.4 112.8 403.5 174 603.7 10.5 34.3 44 84.5 70.2 86.6 60.7 5 35.2-56.1 42.7-90.2 32.9-149.3 64-299 95.7-448.6" style="fill:#741921;fill-opacity:1;fill-rule:nonzero;stroke:none" transform="matrix(.13333 0 0 -.13333 0 6666.667)"/><path d="M26122.7 24121.8c292 341.7 548.3 701.1 579.5 1171.9 60.8 719.6-265.4 1260.8-790.7 1708.7-72.5 61.8-153.5 113.6-230.6 169.9 1.8 74.3 37.5 118.2 113.7 125.5 329.3-117.9 560.5-371.1 815.5-591.4 63-93.5 126.7-186.7 189-280.6 220.1-331.3 274.2-691.4 154.3-1067.2-134.1-419.9-348.7-801.1-625.6-1143.9-43.8-54.2-86.2-177.1-205.1-92.9" style="fill:#a53b42;fill-opacity:1;fill-rule:nonzero;stroke:none" transform="matrix(.13333 0 0 -.13333 0 6666.667)"/><path d="M24609.4 24022.9c-154-216.8 54-186.5 146-189.6 226.2-7.7 446.8-28.7 658.5-113.4 74.8-29.9 111.7-63.9 27.5-126.4-308.7-63.7-616.2-146.4-935.8-80.8-577.3 118.7-872.2 663.3-640.8 1203.4 115.9 270.6 290.9 502.9 527.2 686.9 181.4 141.2 375.6 178.4 592.6 106.7 33.8-11.2 68.5-62 101.9-14.6 13 18.4-3.3 61.5-12.9 91.2-81 249.6-214.7 470.4-374.3 676.7-45.4 168.1-266.6 209.6-285.6 396.6 186.3-106.5 310-276.3 441.9-437.7 240-474 465.9-951.1 330.5-1507.5-73.5 172.8-54.7 387.9-237.9 510.6-40.2 27-75.1 70.1-127.6 55-70.8-20.4-56.5-86.3-64.5-141-19.4-132.7 41.3-253.6 51.4-381.7-146.2 174.7-341.6 166.6-540.4 145.5 2.5 32 9.6 64.4 6.4 95.9-4.8 48.3 106.8 93.9 19.5 131.6-63.2 27.4-84.2-57.5-106.7-106.1-112.9-244.9-24.3-634.2 181.2-804.8 60.6-90.1 156.2-137.2 241.9-196.5" style="fill:#1c0908;fill-opacity:1;fill-rule:nonzero;stroke:none" transform="matrix(.13333 0 0 -.13333 0 6666.667)"/><path d="M22702.4 27250.6c2 12.8 4 25.7 5.8 38.5 385.9 96.3 773.2 160.2 1168.4 53.6 80.8-131.3 210.7-193.9 345.7-251.9 402-172.6 797.6-351.6 1105.7-682.2 505.1-542.1 467.6-1637.7-81-2093.4 254.5 717 114.4 1365.6-339.5 1959.9-400.6 542.3-867.7 974.6-1599.9 971.8-201.7-.7-403.4 2.3-605.2 3.7" style="fill:#83212a;fill-opacity:1;fill-rule:nonzero;stroke:none" transform="matrix(.13333 0 0 -.13333 0 6666.667)"/><path d="M24907.5 26275.1c453.9-594.3 594-1242.9 339.4-1959.9-31.5-49.4-63.1-98.9-94.7-148.3-155.1-145.5-343.5-165.4-542.8-144-85.7 59.3-181.3 106.4-241.9 196.5 526.4-64.4 701.7 41.6 818.6 495 135.4 556.4-90.5 1033.5-330.5 1507.5 17.3 17.8 34.6 35.5 51.9 53.2" style="fill:#b53f4b;fill-opacity:1;fill-rule:nonzero;stroke:none" transform="matrix(.13333 0 0 -.13333 0 6666.667)"/><path d="M25152.2 24166.9c31.6 49.4 63.2 98.9 94.7 148.3 548.7 455.7 586.2 1551.3 81.1 2093.4-308.1 330.6-703.7 509.6-1105.7 682.2-135 58-264.9 120.6-345.7 251.9 697.2-80.8 1413-98 2004.1-556.4 375.4-291.1 608.7-664.9 635.5-1150.6 2.8-195.2-23-382.4-83.8-572.1-148.2-462.4-451.4-735.9-923.3-829.4-118.8-23.6-237.9-44.9-356.9-67.3" style="fill:#551218;fill-opacity:1;fill-rule:nonzero;stroke:none" transform="matrix(.13333 0 0 -.13333 0 6666.667)"/><path d="M25186.1 24714.4c-116.9-453.4-292.2-559.4-818.6-495-205.5 170.6-294.1 559.9-181.2 804.8 22.5 48.6 43.5 133.5 106.7 106.1 87.3-37.7-24.3-83.3-19.5-131.6 3.2-31.5-3.9-63.9-6.4-95.9-113.7-168.3-.7-324.8 27.7-485 4.8-27.3 45.2-74 54.4-70.7 63.2 22.5 8 60.5 4.4 92.5-3.2 27.8-45.3 58.6 3.2 79.5 8.8 3.8 38.9-25 49.1-44.1 96.4-181.4 257.6-212.9 408.9-117.3 181.3 114.6 55.4 266.1-7.3 399.6-10.1 128.1-70.8 249-51.4 381.7 8 54.7-6.3 120.6 64.5 141 52.5 15.1 87.4-28 127.6-55 183.2-122.7 164.4-337.8 237.9-510.6" style="fill:#511219;fill-opacity:1;fill-rule:nonzero;stroke:none" transform="matrix(.13333 0 0 -.13333 0 6666.667)"/><path d="M24807.5 24757.3c62.7-133.5 188.6-285 7.3-399.6-151.3-95.6-312.5-64.1-408.9 117.3-10.2 19.1-40.3 47.9-49.1 44.1-48.5-20.9-6.4-51.7-3.2-79.5 3.6-32 58.8-70-4.4-92.5-9.2-3.3-49.6 43.4-54.4 70.7-28.4 160.2-141.4 316.7-27.7 485 198.8 21.1 394.2 29.2 540.4-145.5" style="fill:#2d0a0d;fill-opacity:1;fill-rule:nonzero;stroke:none" transform="matrix(.13333 0 0 -.13333 0 6666.667)"/></svg>